<mxfile host="app.diagrams.net" agent="Mozilla/5.0 (Windows NT 10.0; Win64; x64) AppleWebKit/537.36 (KHTML, like Gecko) Chrome/139.0.0.0 Safari/537.36" version="26.1.1">
  <diagram name="Page-1" id="JuV3SNzjA5HDG6imbFDL">
    <mxGraphModel dx="8020" dy="5200" grid="1" gridSize="10" guides="1" tooltips="1" connect="1" arrows="1" fold="1" page="1" pageScale="1" pageWidth="850" pageHeight="1100" math="0" shadow="0">
      <root>
        <mxCell id="0" />
        <mxCell id="1" parent="0" />
        <mxCell id="-p34ooiD5mbTUQ0eklT2-4" value="" style="rounded=0;whiteSpace=wrap;html=1;fillColor=#dae8fc;strokeColor=#6c8ebf;" vertex="1" parent="1">
          <mxGeometry x="-50" y="-30" width="1750" height="1180" as="geometry" />
        </mxCell>
        <mxCell id="sWJfDRMMJGSbiAhJx7zr-45" style="edgeStyle=orthogonalEdgeStyle;rounded=0;orthogonalLoop=1;jettySize=auto;html=1;exitX=1;exitY=0.25;exitDx=0;exitDy=0;entryX=0;entryY=0.5;entryDx=0;entryDy=0;" parent="1" source="sWJfDRMMJGSbiAhJx7zr-33" target="sWJfDRMMJGSbiAhJx7zr-29" edge="1">
          <mxGeometry relative="1" as="geometry" />
        </mxCell>
        <mxCell id="sWJfDRMMJGSbiAhJx7zr-46" style="edgeStyle=orthogonalEdgeStyle;rounded=0;orthogonalLoop=1;jettySize=auto;html=1;exitX=1;exitY=0.75;exitDx=0;exitDy=0;entryX=0;entryY=0.5;entryDx=0;entryDy=0;" parent="1" source="sWJfDRMMJGSbiAhJx7zr-33" target="sWJfDRMMJGSbiAhJx7zr-29" edge="1">
          <mxGeometry relative="1" as="geometry" />
        </mxCell>
        <mxCell id="sWJfDRMMJGSbiAhJx7zr-33" value="" style="rounded=0;whiteSpace=wrap;html=1;fillColor=#d5e8d4;strokeColor=#82b366;" parent="1" vertex="1">
          <mxGeometry x="895" y="280" width="150" height="280" as="geometry" />
        </mxCell>
        <mxCell id="sWJfDRMMJGSbiAhJx7zr-44" style="edgeStyle=orthogonalEdgeStyle;rounded=0;orthogonalLoop=1;jettySize=auto;html=1;exitX=1;exitY=0.5;exitDx=0;exitDy=0;entryX=0;entryY=0.5;entryDx=0;entryDy=0;" parent="1" source="sWJfDRMMJGSbiAhJx7zr-32" target="sWJfDRMMJGSbiAhJx7zr-33" edge="1">
          <mxGeometry relative="1" as="geometry" />
        </mxCell>
        <mxCell id="sWJfDRMMJGSbiAhJx7zr-47" style="edgeStyle=orthogonalEdgeStyle;rounded=0;orthogonalLoop=1;jettySize=auto;html=1;exitX=0.5;exitY=0;exitDx=0;exitDy=0;entryX=0.5;entryY=1;entryDx=0;entryDy=0;startArrow=classic;startFill=1;" parent="1" source="sWJfDRMMJGSbiAhJx7zr-32" target="sWJfDRMMJGSbiAhJx7zr-39" edge="1">
          <mxGeometry relative="1" as="geometry" />
        </mxCell>
        <mxCell id="sWJfDRMMJGSbiAhJx7zr-32" value="" style="rounded=0;whiteSpace=wrap;html=1;fillColor=#d5e8d4;strokeColor=#82b366;" parent="1" vertex="1">
          <mxGeometry x="545" y="280" width="150" height="280" as="geometry" />
        </mxCell>
        <mxCell id="sWJfDRMMJGSbiAhJx7zr-8" value="" style="rounded=0;whiteSpace=wrap;html=1;fillColor=#d5e8d4;strokeColor=#82b366;" parent="1" vertex="1">
          <mxGeometry x="640" y="920" width="560" height="160" as="geometry" />
        </mxCell>
        <mxCell id="sWJfDRMMJGSbiAhJx7zr-11" style="edgeStyle=orthogonalEdgeStyle;rounded=0;orthogonalLoop=1;jettySize=auto;html=1;exitX=1;exitY=0.5;exitDx=0;exitDy=0;entryX=0;entryY=0.5;entryDx=0;entryDy=0;startArrow=classic;startFill=1;" parent="1" source="sWJfDRMMJGSbiAhJx7zr-7" target="sWJfDRMMJGSbiAhJx7zr-8" edge="1">
          <mxGeometry relative="1" as="geometry" />
        </mxCell>
        <mxCell id="sWJfDRMMJGSbiAhJx7zr-7" value="&lt;br&gt;&lt;div&gt;&lt;/div&gt;" style="rounded=0;whiteSpace=wrap;html=1;fillColor=#d5e8d4;strokeColor=#82b366;" parent="1" vertex="1">
          <mxGeometry x="40" y="920" width="560" height="160" as="geometry" />
        </mxCell>
        <mxCell id="sWJfDRMMJGSbiAhJx7zr-1" value="ZBX-DB 1" style="rounded=1;whiteSpace=wrap;html=1;fillColor=#ffe6cc;strokeColor=#d79b00;" parent="1" vertex="1">
          <mxGeometry x="60" y="970" width="120" height="60" as="geometry" />
        </mxCell>
        <mxCell id="sWJfDRMMJGSbiAhJx7zr-2" value="ZBX-DB 2" style="rounded=1;whiteSpace=wrap;html=1;fillColor=#ffe6cc;strokeColor=#d79b00;" parent="1" vertex="1">
          <mxGeometry x="260" y="970" width="120" height="60" as="geometry" />
        </mxCell>
        <mxCell id="sWJfDRMMJGSbiAhJx7zr-3" value="ZBX-DB 3" style="rounded=1;whiteSpace=wrap;html=1;fillColor=#ffe6cc;strokeColor=#d79b00;" parent="1" vertex="1">
          <mxGeometry x="460" y="970" width="120" height="60" as="geometry" />
        </mxCell>
        <mxCell id="sWJfDRMMJGSbiAhJx7zr-4" value="ETCD 3" style="rounded=1;whiteSpace=wrap;html=1;fillColor=#ffe6cc;strokeColor=#d79b00;" parent="1" vertex="1">
          <mxGeometry x="1060" y="970" width="120" height="60" as="geometry" />
        </mxCell>
        <mxCell id="sWJfDRMMJGSbiAhJx7zr-5" value="ETCD 2" style="rounded=1;whiteSpace=wrap;html=1;fillColor=#ffe6cc;strokeColor=#d79b00;" parent="1" vertex="1">
          <mxGeometry x="860" y="970" width="120" height="60" as="geometry" />
        </mxCell>
        <mxCell id="sWJfDRMMJGSbiAhJx7zr-6" value="ETCD 1" style="rounded=1;whiteSpace=wrap;html=1;fillColor=#ffe6cc;strokeColor=#d79b00;" parent="1" vertex="1">
          <mxGeometry x="660" y="970" width="120" height="60" as="geometry" />
        </mxCell>
        <mxCell id="sWJfDRMMJGSbiAhJx7zr-12" value="&lt;font style=&quot;font-size: 16px;&quot;&gt;Patroni DB cluster&lt;/font&gt;" style="text;strokeColor=none;fillColor=none;html=1;fontSize=24;fontStyle=1;verticalAlign=middle;align=center;" parent="1" vertex="1">
          <mxGeometry x="270" y="1040" width="100" height="40" as="geometry" />
        </mxCell>
        <mxCell id="sWJfDRMMJGSbiAhJx7zr-13" value="&lt;font style=&quot;font-size: 16px;&quot;&gt;ETCD cluster&lt;/font&gt;" style="text;strokeColor=none;fillColor=none;html=1;fontSize=24;fontStyle=1;verticalAlign=middle;align=center;" parent="1" vertex="1">
          <mxGeometry x="870" y="1040" width="100" height="40" as="geometry" />
        </mxCell>
        <mxCell id="sWJfDRMMJGSbiAhJx7zr-22" style="edgeStyle=orthogonalEdgeStyle;rounded=0;orthogonalLoop=1;jettySize=auto;html=1;exitX=0.5;exitY=0;exitDx=0;exitDy=0;entryX=0.5;entryY=1;entryDx=0;entryDy=0;" parent="1" source="sWJfDRMMJGSbiAhJx7zr-15" target="sWJfDRMMJGSbiAhJx7zr-17" edge="1">
          <mxGeometry relative="1" as="geometry" />
        </mxCell>
        <mxCell id="sWJfDRMMJGSbiAhJx7zr-15" value="DB HAPROXY 1" style="rounded=1;whiteSpace=wrap;html=1;fillColor=#ffe6cc;strokeColor=#d79b00;" parent="1" vertex="1">
          <mxGeometry x="160" y="740" width="120" height="60" as="geometry" />
        </mxCell>
        <mxCell id="sWJfDRMMJGSbiAhJx7zr-24" style="edgeStyle=orthogonalEdgeStyle;rounded=0;orthogonalLoop=1;jettySize=auto;html=1;exitX=0.5;exitY=0;exitDx=0;exitDy=0;entryX=0.5;entryY=1;entryDx=0;entryDy=0;" parent="1" source="sWJfDRMMJGSbiAhJx7zr-16" target="sWJfDRMMJGSbiAhJx7zr-17" edge="1">
          <mxGeometry relative="1" as="geometry" />
        </mxCell>
        <mxCell id="sWJfDRMMJGSbiAhJx7zr-16" value="&lt;br&gt;&lt;span style=&quot;color: rgb(0, 0, 0); font-family: Helvetica; font-size: 12px; font-style: normal; font-variant-ligatures: normal; font-variant-caps: normal; font-weight: 400; letter-spacing: normal; orphans: 2; text-align: center; text-indent: 0px; text-transform: none; widows: 2; word-spacing: 0px; -webkit-text-stroke-width: 0px; white-space: normal; background-color: rgb(251, 251, 251); text-decoration-thickness: initial; text-decoration-style: initial; text-decoration-color: initial; float: none; display: inline !important;&quot;&gt;DB HAPROXY 2&lt;/span&gt;&lt;div&gt;&lt;br/&gt;&lt;/div&gt;" style="rounded=1;whiteSpace=wrap;html=1;fillColor=#ffe6cc;strokeColor=#d79b00;" parent="1" vertex="1">
          <mxGeometry x="360" y="740" width="120" height="60" as="geometry" />
        </mxCell>
        <mxCell id="sWJfDRMMJGSbiAhJx7zr-40" style="edgeStyle=orthogonalEdgeStyle;rounded=0;orthogonalLoop=1;jettySize=auto;html=1;exitX=0.5;exitY=0;exitDx=0;exitDy=0;entryX=0;entryY=0.5;entryDx=0;entryDy=0;" parent="1" source="sWJfDRMMJGSbiAhJx7zr-17" target="sWJfDRMMJGSbiAhJx7zr-32" edge="1">
          <mxGeometry relative="1" as="geometry" />
        </mxCell>
        <mxCell id="sWJfDRMMJGSbiAhJx7zr-17" value="Keepalived virtual IP" style="rounded=1;whiteSpace=wrap;html=1;fillColor=#ffe6cc;strokeColor=#d79b00;" parent="1" vertex="1">
          <mxGeometry x="260" y="610" width="120" height="60" as="geometry" />
        </mxCell>
        <mxCell id="sWJfDRMMJGSbiAhJx7zr-18" style="edgeStyle=orthogonalEdgeStyle;rounded=0;orthogonalLoop=1;jettySize=auto;html=1;exitX=0.5;exitY=1;exitDx=0;exitDy=0;entryX=0.322;entryY=-0.003;entryDx=0;entryDy=0;entryPerimeter=0;startArrow=classic;startFill=1;" parent="1" source="sWJfDRMMJGSbiAhJx7zr-15" target="sWJfDRMMJGSbiAhJx7zr-7" edge="1">
          <mxGeometry relative="1" as="geometry" />
        </mxCell>
        <mxCell id="sWJfDRMMJGSbiAhJx7zr-21" style="edgeStyle=orthogonalEdgeStyle;rounded=0;orthogonalLoop=1;jettySize=auto;html=1;exitX=0.5;exitY=1;exitDx=0;exitDy=0;entryX=0.679;entryY=-0.003;entryDx=0;entryDy=0;entryPerimeter=0;startArrow=classic;startFill=1;" parent="1" source="sWJfDRMMJGSbiAhJx7zr-16" target="sWJfDRMMJGSbiAhJx7zr-7" edge="1">
          <mxGeometry relative="1" as="geometry" />
        </mxCell>
        <mxCell id="sWJfDRMMJGSbiAhJx7zr-25" value="ZBX-SRV1" style="rounded=1;whiteSpace=wrap;html=1;fillColor=#ffe6cc;strokeColor=#d79b00;" parent="1" vertex="1">
          <mxGeometry x="560" y="330" width="120" height="60" as="geometry" />
        </mxCell>
        <mxCell id="sWJfDRMMJGSbiAhJx7zr-42" style="edgeStyle=orthogonalEdgeStyle;rounded=0;orthogonalLoop=1;jettySize=auto;html=1;exitX=0.5;exitY=0;exitDx=0;exitDy=0;startArrow=classic;startFill=1;" parent="1" source="sWJfDRMMJGSbiAhJx7zr-26" target="sWJfDRMMJGSbiAhJx7zr-25" edge="1">
          <mxGeometry relative="1" as="geometry" />
        </mxCell>
        <mxCell id="sWJfDRMMJGSbiAhJx7zr-26" value="ZBX-SRV2" style="rounded=1;whiteSpace=wrap;html=1;fillColor=#ffe6cc;strokeColor=#d79b00;" parent="1" vertex="1">
          <mxGeometry x="560" y="450" width="120" height="60" as="geometry" />
        </mxCell>
        <mxCell id="sWJfDRMMJGSbiAhJx7zr-27" value="ZBX-WEB1" style="rounded=1;whiteSpace=wrap;html=1;fillColor=#ffe6cc;strokeColor=#d79b00;" parent="1" vertex="1">
          <mxGeometry x="910" y="330" width="120" height="60" as="geometry" />
        </mxCell>
        <mxCell id="sWJfDRMMJGSbiAhJx7zr-28" value="ZBX-WEB2" style="rounded=1;whiteSpace=wrap;html=1;fillColor=#ffe6cc;strokeColor=#d79b00;" parent="1" vertex="1">
          <mxGeometry x="910" y="450" width="120" height="60" as="geometry" />
        </mxCell>
        <mxCell id="sWJfDRMMJGSbiAhJx7zr-50" style="edgeStyle=orthogonalEdgeStyle;rounded=0;orthogonalLoop=1;jettySize=auto;html=1;exitX=1;exitY=0.5;exitDx=0;exitDy=0;" parent="1" source="sWJfDRMMJGSbiAhJx7zr-29" edge="1">
          <mxGeometry relative="1" as="geometry">
            <mxPoint x="1360" y="420" as="targetPoint" />
          </mxGeometry>
        </mxCell>
        <mxCell id="sWJfDRMMJGSbiAhJx7zr-29" value="NGINX LOAD BALANCER" style="rounded=1;whiteSpace=wrap;html=1;fillColor=#ffe6cc;strokeColor=#d79b00;" parent="1" vertex="1">
          <mxGeometry x="1120" y="390" width="120" height="60" as="geometry" />
        </mxCell>
        <mxCell id="sWJfDRMMJGSbiAhJx7zr-48" style="edgeStyle=orthogonalEdgeStyle;rounded=0;orthogonalLoop=1;jettySize=auto;html=1;exitX=1;exitY=0.5;exitDx=0;exitDy=0;" parent="1" source="sWJfDRMMJGSbiAhJx7zr-36" edge="1">
          <mxGeometry relative="1" as="geometry">
            <mxPoint x="920" y="80" as="targetPoint" />
          </mxGeometry>
        </mxCell>
        <mxCell id="sWJfDRMMJGSbiAhJx7zr-36" value="" style="rounded=0;whiteSpace=wrap;html=1;fillColor=#d5e8d4;strokeColor=#82b366;" parent="1" vertex="1">
          <mxGeometry x="430" y="10" width="380" height="140" as="geometry" />
        </mxCell>
        <mxCell id="sWJfDRMMJGSbiAhJx7zr-30" value="PROXY 1" style="rounded=1;whiteSpace=wrap;html=1;fillColor=#ffe6cc;strokeColor=#d79b00;" parent="1" vertex="1">
          <mxGeometry x="460" y="50" width="120" height="60" as="geometry" />
        </mxCell>
        <mxCell id="sWJfDRMMJGSbiAhJx7zr-31" value="PROXY 1" style="rounded=1;whiteSpace=wrap;html=1;fillColor=#ffe6cc;strokeColor=#d79b00;" parent="1" vertex="1">
          <mxGeometry x="660" y="50" width="120" height="60" as="geometry" />
        </mxCell>
        <mxCell id="sWJfDRMMJGSbiAhJx7zr-37" value="&lt;font style=&quot;font-size: 16px;&quot;&gt;ZBX servers&lt;/font&gt;" style="text;strokeColor=none;fillColor=none;html=1;fontSize=24;fontStyle=1;verticalAlign=middle;align=center;" parent="1" vertex="1">
          <mxGeometry x="570" y="520" width="100" height="40" as="geometry" />
        </mxCell>
        <mxCell id="sWJfDRMMJGSbiAhJx7zr-38" value="&lt;font style=&quot;font-size: 16px;&quot;&gt;ZBX frontend web&lt;/font&gt;" style="text;strokeColor=none;fillColor=none;html=1;fontSize=24;fontStyle=1;verticalAlign=middle;align=center;" parent="1" vertex="1">
          <mxGeometry x="920" y="520" width="100" height="40" as="geometry" />
        </mxCell>
        <mxCell id="sWJfDRMMJGSbiAhJx7zr-39" value="&lt;font style=&quot;font-size: 16px;&quot;&gt;ZBX proxy servers&lt;/font&gt;" style="text;strokeColor=none;fillColor=none;html=1;fontSize=24;fontStyle=1;verticalAlign=middle;align=center;" parent="1" vertex="1">
          <mxGeometry x="570" y="110" width="100" height="40" as="geometry" />
        </mxCell>
        <mxCell id="sWJfDRMMJGSbiAhJx7zr-43" value="&lt;font style=&quot;font-size: 16px;&quot;&gt;DB connection&lt;/font&gt;" style="text;strokeColor=none;fillColor=none;html=1;fontSize=24;fontStyle=1;verticalAlign=middle;align=center;" parent="1" vertex="1">
          <mxGeometry x="325" y="380" width="100" height="40" as="geometry" />
        </mxCell>
        <mxCell id="sWJfDRMMJGSbiAhJx7zr-49" value="&lt;font style=&quot;font-size: 18px;&quot;&gt;ZBX agents&lt;/font&gt;" style="text;strokeColor=none;fillColor=none;html=1;fontSize=24;fontStyle=1;verticalAlign=middle;align=center;" parent="1" vertex="1">
          <mxGeometry x="940" y="60" width="100" height="40" as="geometry" />
        </mxCell>
        <mxCell id="sWJfDRMMJGSbiAhJx7zr-51" value="WEB UI access" style="text;strokeColor=none;fillColor=none;html=1;fontSize=24;fontStyle=1;verticalAlign=middle;align=center;" parent="1" vertex="1">
          <mxGeometry x="1420" y="400" width="100" height="40" as="geometry" />
        </mxCell>
        <mxCell id="-p34ooiD5mbTUQ0eklT2-3" value="&lt;span style=&quot;color: rgba(0, 0, 0, 0); font-family: monospace; font-size: 0px; text-align: start; text-wrap-mode: nowrap;&quot;&gt;%3CmxGraphModel%3E%3Croot%3E%3CmxCell%20id%3D%220%22%2F%3E%3CmxCell%20id%3D%221%22%20parent%3D%220%22%2F%3E%3CmxCell%20id%3D%222%22%20value%3D%22NGINX%20LOAD%20BALANCER%22%20style%3D%22rounded%3D1%3BwhiteSpace%3Dwrap%3Bhtml%3D1%3B%22%20vertex%3D%221%22%20parent%3D%221%22%3E%3CmxGeometry%20x%3D%221120%22%20y%3D%22390%22%20width%3D%22120%22%20height%3D%2260%22%20as%3D%22geometry%22%2F%3E%3C%2FmxCell%3E%3C%2Froot%3E%3C%2FmxGraphModel%3E&lt;/span&gt;&lt;span style=&quot;color: rgba(0, 0, 0, 0); font-family: monospace; font-size: 0px; text-align: start; text-wrap-mode: nowrap;&quot;&gt;%3CmxGraphModel%3E%3Croot%3E%3CmxCell%20id%3D%220%22%2F%3E%3CmxCell%20id%3D%221%22%20parent%3D%220%22%2F%3E%3CmxCell%20id%3D%222%22%20value%3D%22NGINX%20LOAD%20BALANCER%22%20style%3D%22rounded%3D1%3BwhiteSpace%3Dwrap%3Bhtml%3D1%3B%22%20vertex%3D%221%22%20parent%3D%221%22%3E%3CmxGeometry%20x%3D%221120%22%20y%3D%22390%22%20width%3D%22120%22%20height%3D%2260%22%20as%3D%22geometry%22%2F%3E%3C%2FmxCell%3E%3C%2Froot%3E%3C%2FmxGraphModel%3E&lt;/span&gt;" style="rounded=0;whiteSpace=wrap;html=1;fillColor=#dae8fc;strokeColor=#6c8ebf;" vertex="1" parent="1">
          <mxGeometry x="3320" y="-430" width="1850" height="1920" as="geometry" />
        </mxCell>
        <mxCell id="-p34ooiD5mbTUQ0eklT2-5" value="&lt;font style=&quot;font-size: 18px;&quot;&gt;ZABBIX INFRASTRUCTURE&lt;/font&gt;" style="rounded=0;whiteSpace=wrap;html=1;fillColor=#fff2cc;strokeColor=#d6b656;" vertex="1" parent="1">
          <mxGeometry x="1320" y="980" width="290" height="60" as="geometry" />
        </mxCell>
        <mxCell id="-p34ooiD5mbTUQ0eklT2-12" style="edgeStyle=orthogonalEdgeStyle;rounded=0;orthogonalLoop=1;jettySize=auto;html=1;exitX=0;exitY=0.75;exitDx=0;exitDy=0;entryX=0;entryY=0.25;entryDx=0;entryDy=0;startArrow=classic;startFill=1;" edge="1" parent="1" source="-p34ooiD5mbTUQ0eklT2-6" target="-p34ooiD5mbTUQ0eklT2-7">
          <mxGeometry relative="1" as="geometry" />
        </mxCell>
        <mxCell id="-p34ooiD5mbTUQ0eklT2-6" value="&lt;font style=&quot;font-size: 48px;&quot;&gt;lxprox1p.ad.local&lt;/font&gt;" style="rounded=1;whiteSpace=wrap;html=1;fillColor=#ffe6cc;strokeColor=#d79b00;" vertex="1" parent="1">
          <mxGeometry x="3630" y="-180" width="1210" height="270" as="geometry" />
        </mxCell>
        <mxCell id="-p34ooiD5mbTUQ0eklT2-13" style="edgeStyle=orthogonalEdgeStyle;rounded=0;orthogonalLoop=1;jettySize=auto;html=1;exitX=0;exitY=0.75;exitDx=0;exitDy=0;entryX=0;entryY=0.25;entryDx=0;entryDy=0;startArrow=classic;startFill=1;" edge="1" parent="1" source="-p34ooiD5mbTUQ0eklT2-7" target="-p34ooiD5mbTUQ0eklT2-8">
          <mxGeometry relative="1" as="geometry" />
        </mxCell>
        <mxCell id="-p34ooiD5mbTUQ0eklT2-7" value="&lt;span style=&quot;font-size: 48px;&quot;&gt;lxprox2p.ad.local&lt;/span&gt;" style="rounded=1;whiteSpace=wrap;html=1;fillColor=#ffe6cc;strokeColor=#d79b00;" vertex="1" parent="1">
          <mxGeometry x="3630" y="190" width="1210" height="270" as="geometry" />
        </mxCell>
        <mxCell id="-p34ooiD5mbTUQ0eklT2-14" style="edgeStyle=orthogonalEdgeStyle;rounded=0;orthogonalLoop=1;jettySize=auto;html=1;exitX=0;exitY=0.75;exitDx=0;exitDy=0;entryX=0;entryY=0.25;entryDx=0;entryDy=0;startArrow=classic;startFill=1;" edge="1" parent="1" source="-p34ooiD5mbTUQ0eklT2-8" target="-p34ooiD5mbTUQ0eklT2-9">
          <mxGeometry relative="1" as="geometry">
            <Array as="points">
              <mxPoint x="3610" y="773" />
              <mxPoint x="3610" y="1018" />
            </Array>
          </mxGeometry>
        </mxCell>
        <mxCell id="-p34ooiD5mbTUQ0eklT2-8" value="&lt;span style=&quot;font-size: 48px;&quot;&gt;lxprox3p.ad.local&lt;/span&gt;" style="rounded=1;whiteSpace=wrap;html=1;fillColor=#ffe6cc;strokeColor=#d79b00;" vertex="1" parent="1">
          <mxGeometry x="3630" y="570" width="1210" height="270" as="geometry" />
        </mxCell>
        <mxCell id="-p34ooiD5mbTUQ0eklT2-9" value="&lt;span style=&quot;font-size: 48px;&quot;&gt;lxprox4p.ad.local&lt;/span&gt;" style="rounded=1;whiteSpace=wrap;html=1;fillColor=#ffe6cc;strokeColor=#d79b00;" vertex="1" parent="1">
          <mxGeometry x="3630" y="950" width="1210" height="270" as="geometry" />
        </mxCell>
        <mxCell id="-p34ooiD5mbTUQ0eklT2-15" value="&lt;font style=&quot;font-size: 36px;&quot;&gt;Physical servers&lt;/font&gt;" style="rounded=1;whiteSpace=wrap;html=1;" vertex="1" parent="1">
          <mxGeometry x="3460" y="-380" width="310" height="90" as="geometry" />
        </mxCell>
      </root>
    </mxGraphModel>
  </diagram>
</mxfile>
